inDegrees=yes
name=ik_lifting_orientations
DataType=double
version=3
OpenSimVersion=4.5-2024-01-10-34fd6af
endheader
time	pelvis_tilt	pelvis_list	pelvis_rotation	pelvis_tx	pelvis_ty	pelvis_tz	hip_flexion_r	hip_adduction_r	hip_rotation_r	knee_angle_r	knee_angle_r_beta	ankle_angle_r	subtalar_angle_r	mtp_angle_r	hip_flexion_l	hip_adduction_l	hip_rotation_l	knee_angle_l	knee_angle_l_beta	ankle_angle_l	subtalar_angle_l	mtp_angle_l	lumbar_extension	lumbar_bending	lumbar_rotation	arm_flex_r	arm_add_r	arm_rot_r	elbow_flex_r	pro_sup_r	wrist_flex_r	wrist_dev_r	arm_flex_l	arm_add_l	arm_rot_l	elbow_flex_l	pro_sup_l	wrist_flex_l	wrist_dev_l
0.02	-0.008922953772146825	-0.0215341545144464	-90.00368116455151	0	0.9399999998679526	0	44.99032510461539	-11.6589193356788	0	59.99596541280624	1.047127134366108	-5.804286473787161	0	0	44.99032510461539	-11.6589193356788	0	59.99596541280624	1.047127134366108	-5.804286473787161	0	0	-0.03898173119821768	0.01221672080965472	0.02677330341490256	-0.4653440095726231	-0.1240487427396473	-0.04095811658515167	1.006711236183947	2.54969078668536	0	0	0	-10.29457151057143	0	87.50082065985434	2.54969078668536	0	0
0.03	0.001568533674499812	-0.001787300257156305	-89.99932624488996	0	0.9399999998679526	0	44.99055268172282	-11.53586707083898	0	59.99604297780333	1.047128488130691	-5.729726094838502	0	0	44.99055268172282	-11.53586707083898	0	59.99604297780333	1.047128488130691	-5.729726094838502	0	0	-0.00355943644829206	-0.001551551829003686	-0.002015197570365354	-0.2300690527426447	-0.05368231493865341	0.0110719257166413	0.4887135510650555	2.507411119189144	0	0	0	-10.35246438717811	0	87.54225875149243	2.507411119189144	0	0
0.04	-0.001764582738434151	0.0001831112089580141	-89.99824693132469	0	0.9399999998679526	0	44.99076608062551	-11.42826816486002	0	59.99611614828033	1.04712976519643	-5.666178933637862	0	0	44.99076608062551	-11.42826816486002	0	59.99611614828033	1.04712976519643	-5.666178933637862	0	0	0.001169444451320862	0.001847717664830649	0.001021638010159149	-0.2281116603167795	-0.02159596728268767	0.03532931024869296	0.4897949322567971	2.467392290208722	0	0	0	-10.4075759970187	0	87.58148107938645	2.467392290208722	0	0
0.05	0.008368758498747093	-0.0008846707346102853	-89.9931049418223	0	0.9399999998679526	0	44.99098717013064	-11.32274382924492	0	59.99619236088039	1.047131095357233	-5.605101471104365	0	0	44.99098717013064	-11.32274382924492	0	59.99619236088039	1.047131095357233	-5.605101471104365	0	0	-0.003117939131615351	-0.003588643228145992	-0.003613809828880017	-0.2350029149724718	-0.0339268556187843	-0.03077055148490058	0.4996179141355597	2.425622153049594	0	0	0	-10.46536257066133	0	87.6224199151053	2.425622153049594	0	0
0.06	-0.0002549994530740107	-0.005482575841448217	-89.98903017506491	0	0.9399999998679526	0	44.99098807349866	-11.32228079253747	0	59.99619267186137	1.047131100784875	-5.604825460344188	0	0	44.99098807349866	-11.32228079253747	0	59.99619267186137	1.047131100784875	-5.604825460344188	0	0	-0.001325168491470398	-0.00174453603033688	-0.01291663459024615	-0.2588611886763304	-0.03184157946540687	-0.1075736879144015	0.4811340518294994	2.425452804710615	0	0	0	-10.46559587195265	0	87.62258589283265	2.425452804710615	0	0
0.07000000000000001	-0.005304885455958403	-0.00420939284156864	-89.99969887126355	0	0.9399999998679526	0	44.99117907280556	-11.23468809904085	0	59.99625876674973	1.047132254358295	-5.554872243307763	0	0	44.99117907280556	-11.23468809904085	0	59.99625876674973	1.047132254358295	-5.554872243307763	0	0	-0.008934069793383312	0.0006829159813544194	-1.213556798921449e-05	-0.2191063618748366	0.02087568832571911	-0.08246223567618366	0.4489227678758086	2.389172521599226	0	0	0	-10.5159539206677	0	87.65814416538485	2.389172521599226	0	0
0.08	-0.004174433526458557	1.816751645033097e-05	-90.00024845062769	0	0.9399999998679526	0	44.99143847041581	-11.12048299444662	0	59.99634887667523	1.047133827073184	-5.490760688209243	0	0	44.99143847041581	-11.12048299444662	0	59.99634887667523	1.047133827073184	-5.490760688209243	0	0	0.003833556816210338	0.0003665920685907167	0.0002242125197440684	-0.1919180703881695	0.07991197413896879	-0.02050316332452105	0.4714790684663529	2.339636699557822	0	0	0	-10.58493514416636	0	87.70669422469861	2.339636699557822	0	0
0.09	0.003241230904632232	0.003315226786653949	-89.99993615538267	0	0.9399999998679526	0	44.99165663839984	-11.03342645847526	0	59.9964253874422	1.047135162437981	-5.443632679009816	0	0	44.99165663839984	-11.03342645847526	0	59.9964253874422	1.047135162437981	-5.443632679009816	0	0	0.003335601190624816	0.001209150506111721	0.0007392885149336984	-0.228097562539902	0.1139146033014557	0.00833795770481225	0.4856883071508151	2.297416940858563	0	0	0	-10.6442101275763	0	87.74807390294143	2.297416940858563	0	0
0.1	-0.01602766279070914	-0.00607916371695355	-90.00136007292754	0	0.9399999998679526	0	44.99184124317392	-10.96218953654868	0	59.996490340658	1.047136296085456	-5.405538404297631	0	0	44.99184124317392	-10.96218953654868	0	59.996490340658	1.047136296085456	-5.405538404297631	0	0	-0.005731308299524516	0.004406264875931953	0.00117907819268869	-0.2147157984595379	0.1848036299153699	0.04100275576097847	0.4623264854915698	2.261527866860558	0	0	0	-10.69473966601806	0	87.78324888667889	2.261527866860558	0	0
